<?xml version="1.0" encoding="UTF-8"?>
<svg xmlns="http://www.w3.org/2000/svg" viewBox="0 0 474 356.02">
  <defs>
    <style>
      .cls-1 {
        letter-spacing: -.01em;
      }

      .cls-2 {
        letter-spacing: .02em;
      }

      .cls-3 {
        letter-spacing: 0em;
      }

      .cls-4 {
        letter-spacing: 0em;
      }

      .cls-5 {
        letter-spacing: 0em;
      }

      .cls-6 {
        letter-spacing: -.1em;
      }

      .cls-7 {
        letter-spacing: 0em;
      }

      .cls-8 {
        letter-spacing: 0em;
      }

      .cls-9 {
        fill: #7f7f7f;
        opacity: .47;
        stroke-width: 0px;
      }

      .cls-10 {
        letter-spacing: 0em;
      }

      .cls-11 {
        letter-spacing: .02em;
      }

      .cls-12 {
        letter-spacing: 0em;
      }

      .cls-13 {
        letter-spacing: 0em;
      }

      .cls-14 {
        letter-spacing: 0em;
      }

      .cls-15 {
        letter-spacing: 0em;
      }

      .cls-16 {
        fill: none;
        stroke: #201f1f;
        stroke-miterlimit: 10;
      }

      .cls-17 {
        fill: #231f20;
        font-family: MyriadPro-Regular, 'Myriad Pro';
        font-size: 12px;
      }

      .cls-18 {
        letter-spacing: 0em;
      }
    </style>
  </defs>
  <g id="Layer_4" data-name="Layer 4">
    <text class="cls-17" transform="translate(257.33 10.04)"><tspan x="0" y="0">&lt;header&gt;</tspan><tspan x="0" y="14.4" xml:space="preserve">        &lt;div id=&quot;</tspan><tspan class="cls-18" x="66.17" y="14.4">r</tspan><tspan x="70.03" y="14.4">ab</tspan><tspan class="cls-12" x="82.64" y="14.4">a</tspan><tspan class="cls-5" x="88.38" y="14.4">t</tspan><tspan x="92.28" y="14.4">dut&quot;&gt;10% STUDIE</tspan><tspan x="0" y="28.8">div&gt;</tspan><tspan x="0" y="43.2" xml:space="preserve">        &lt;n</tspan><tspan class="cls-15" x="34.16" y="43.2">a</tspan><tspan class="cls-10" x="39.85" y="43.2">v id=&quot;n</tspan><tspan class="cls-13" x="75.6" y="43.2">a</tspan><tspan x="81.29" y="43.2">vbar&quot;&gt;</tspan><tspan x="0" y="57.6" xml:space="preserve">            &lt;div id=&quot;bu</tspan><tspan class="cls-13" x="89.78" y="57.6">r</tspan><tspan x="93.61" y="57.6">ge</tspan><tspan class="cls-4" x="106.33" y="57.6">r</tspan><tspan x="110.19" y="57.6">-menu&quot;&gt;</tspan><tspan x="0" y="72" xml:space="preserve">                &lt;span&gt;&lt;/span&gt;</tspan><tspan x="0" y="86.4" xml:space="preserve">            &lt;/div&gt;</tspan><tspan x="0" y="100.8" xml:space="preserve">              </tspan><tspan x="0" y="115.2" xml:space="preserve">            &lt;div id=&quot;menu&quot;&gt;</tspan><tspan x="0" y="129.6" xml:space="preserve">    </tspan><tspan x="0" y="144" xml:space="preserve">                &lt;div id=</tspan><tspan class="cls-2" x="82.48" y="144">&quot;</tspan><tspan class="cls-7" x="86.81" y="144">tidlige</tspan><tspan class="cls-1" x="118.71" y="144">r</tspan><tspan x="122.52" y="144">eU</tspan><tspan class="cls-6" x="136.29" y="144">L</tspan><tspan x="140.78" y="144">&quot;&gt;</tspan><tspan x="0" y="158.4" xml:space="preserve">                    &lt;div  class=&quot;menu</tspan><tspan class="cls-11" x="142.45" y="158.4">-</tspan><tspan x="146.35" y="158.4">d</tspan><tspan class="cls-1" x="153.12" y="158.4">r</tspan><tspan x="156.92" y="158.4">opd</tspan><tspan x="0" y="172.8">d</tspan><tspan class="cls-14" x="6.77" y="172.8">o</tspan><tspan x="13.27" y="172.8">wn()&quot;&gt; </tspan><tspan x="0" y="187.2" xml:space="preserve">                        &lt;a h</tspan><tspan class="cls-1" x="83.19" y="187.2">r</tspan><tspan x="87" y="187.2">ef=&quot;#&quot;&gt;Om Negle</tspan><tspan x="0" y="201.6" xml:space="preserve">    </tspan><tspan x="0" y="216" xml:space="preserve">                        &lt;div class=</tspan><tspan class="cls-15" x="116.75" y="216">&quot;</tspan><tspan x="120.7" y="216">d</tspan><tspan class="cls-1" x="127.46" y="216">r</tspan><tspan x="131.27" y="216">opd</tspan><tspan class="cls-14" x="151.45" y="216">o</tspan><tspan x="157.95" y="216">wn-</tspan><tspan x="0" y="230.4" xml:space="preserve">                            &lt;a h</tspan><tspan class="cls-1" x="93.37" y="230.4">r</tspan><tspan x="97.17" y="230.4">ef=&quot;negleme</tspan><tspan class="cls-12" x="162.13" y="230.4">n</tspan><tspan class="cls-8" x="168.74" y="230.4">t</tspan><tspan x="172.64" y="230.4">e</tspan><tspan class="cls-3" x="178.65" y="230.4">t</tspan><tspan x="182.59" y="230.4">.</tspan><tspan x="0" y="244.8" xml:space="preserve">                            &lt;a h</tspan><tspan class="cls-1" x="93.37" y="244.8">r</tspan><tspan x="97.17" y="244.8">ef=&quot;negleme</tspan><tspan class="cls-12" x="162.13" y="244.8">n</tspan><tspan class="cls-8" x="168.74" y="244.8">t</tspan><tspan x="172.64" y="244.8">et</tspan><tspan x="0" y="259.2" xml:space="preserve">                            &lt;a h</tspan><tspan class="cls-1" x="93.37" y="259.2">r</tspan><tspan x="97.17" y="259.2">ef=&quot;negleme</tspan><tspan class="cls-12" x="162.13" y="259.2">n</tspan><tspan class="cls-8" x="168.74" y="259.2">t</tspan><tspan x="172.64" y="259.2">e</tspan><tspan class="cls-3" x="178.65" y="259.2">t</tspan><tspan x="182.59" y="259.2">.</tspan><tspan x="0" y="273.6" xml:space="preserve">                            &lt;a h</tspan><tspan class="cls-1" x="93.37" y="273.6">r</tspan><tspan x="97.17" y="273.6">ef=&quot;negleme</tspan><tspan class="cls-12" x="162.13" y="273.6">n</tspan><tspan class="cls-8" x="168.74" y="273.6">t</tspan><tspan x="172.64" y="273.6">e</tspan><tspan class="cls-3" x="178.65" y="273.6">t</tspan><tspan x="182.59" y="273.6">.</tspan><tspan x="0" y="288" xml:space="preserve">                        &lt;/div&gt;</tspan><tspan x="0" y="302.4" xml:space="preserve">                    &lt;/div&gt;</tspan><tspan x="0" y="316.8" xml:space="preserve">    </tspan><tspan x="0" y="331.2" xml:space="preserve">                    &lt;div class=</tspan><tspan class="cls-15" x="106.57" y="331.2">&quot;</tspan><tspan x="110.52" y="331.2">d</tspan><tspan class="cls-1" x="117.29" y="331.2">r</tspan><tspan x="121.09" y="331.2">opd</tspan><tspan class="cls-14" x="141.27" y="331.2">o</tspan><tspan x="147.78" y="331.2">wn lap</tspan></text>
  </g>
  <g id="Layer_2" data-name="Layer 2">
    <path class="cls-16" d="m276.91,324.78s16.27-51.3,18.56-66.82.46-48.86.46-48.86c0,0,15.53,1.37,17.81,1.37s36.07-.91,36.07-.91c0,0-1.83,18.72,0,38.81s2.74,37.9,7.76,49.77,10.5,26.48,10.5,26.48c0,0-46.24,13.1-91.16.16Z"/>
    <path class="cls-16" d="m445.71,221.12l-41.11.3s0,4.57.46,10.96-4.57,36.53-6.39,45.21-11.87,31.51-12.79,32.88-.91,9.59-.91,11.42c0,0,43.38,3.2,59.82,3.65"/>
    <path class="cls-16" d="m388.9,303.24l-10.79-.08-.91-4.11s5.02-6.85,6.85-8.68,10.96-11.42,10.96-11.42l-2.28-7.76-1.83-4.57h5.48s2.74-32.42,2.28-47.95-.46-60.73-.46-60.73l6.85.46s.22,60.88.83,62.9"/>
    <path class="cls-16" d="m356.11,293.7s3.77-14.84,4.44-42.94-2.68-140.5-2.68-140.5l2.16-1.02-.28-3.09,12.37-.28v2.81l2.53,1.12s1.81,165.9,3.21,170.4"/>
    <path class="cls-16" d="m377.04,300.68s-15.04-.25-15.88.04-1.12-6.47-1.12-6.47l11.25-1.41s1.41-3.94,2.81-4.78,2.53-7.31,2.53-7.31l2.81-.84,6.19-5.62,8.07-.18"/>
    <line class="cls-16" x1="246.42" y1="308.96" x2="282.6" y2="305.01"/>
    <line class="cls-16" x1="287.26" y1="293.47" x2="245.63" y2="298.35"/>
    <polyline class="cls-16" points="245.4 270.68 252.34 260.94 256.29 268.17 261.55 271.46 264.84 266.2 270.76 264.23 276.68 272.78 285.89 269.49 289.18 259.62 295.46 257.95"/>
    <polyline class="cls-16" points="350.1 251.5 354.31 258.96 360.1 258.17"/>
    <polyline class="cls-16" points="377.04 255.33 383.25 248.44 387.85 244.49 397.5 256.49"/>
    <line class="cls-16" x1="368.06" y1="324.62" x2="444.43" y2="342.51"/>
    <path class="cls-16" d="m440.48,349.74l-67.1-14.47s-34.86,5.26-38.15,5.92l7.89,11.84"/>
    <path class="cls-16" d="m297.73,353.03l7.24-12.5s-27.63-1.32-32.23-3.95-27.34,2-27.34,2l.23-9.54,31.27-4.28"/>
  </g>
  <g id="Layer_3" data-name="Layer 3">
    <path class="cls-9" d="m287.62,217.46c6.12-1.17,7.29-4.66,8.16-5.54s4.66-1.75,6.12-2.33,7.58.58,10.79.87,28.28-.87,30.9-.87,1.46,2.33,2.62,0,.58-5.25,1.17-7-1.17-5.54.29-7.87,0-8.16-.87-8.74-5.54.58-6.12-1.17-2.33-4.66-3.21-4.66-6.7-.87-5.83-3.21-4.66-5.54-5.54-5.25-2.04-1.75-2.04-1.75c0,0-4.37-.29-4.66-5.25s1.75-10.2,2.62-12.53-5.25-12.53-9.33-8.45l-4.08,4.08s-.87-8.74-4.66-9.33c0,0-4.08-8.45-7.29-7,0,0,1.75-7.87-2.33-9.62,0,0,4.66-14.28-7.58-12.83l-5.25,1.75s-4.37-7-8.16-4.96c0,0,.87-2.91-7.29-2.33,0,0,1.46-7.58-.87-10.2s-4.37-13.99-10.79-15.16-8.74-4.96-8.74-4.96v139.33s7,3.79,8.45.58c0,0,7.87,6.7,12.53,4.37,0,0,8.74,8.74,13.41,4.08l7.58-4.08Z"/>
    <path class="cls-9" d="m359.91,105.24l11.66.29s0-5.83-1.17-7.29.87-5.54-1.75-8.74-2.04-16.91-7.58-18.36c0,0-11.37-9.62-13.99-7.29,0,0-1.17-14.57-12.24-9.04,0,0-11.08-11.95-19.53-3.21,0,0-15.74-9.91-22.74-3.5,0,0-.75-16.06-13.68-10.48,0,0-10.93-5.58-15.83-.22,0,0-13.83-6.69-17.4-.89l-.45,33.45s.22,6.47,8.03,4.91,14.27-8.47,14.27-8.47c0,0,4.68-.22,5.58,4.01s6.24,10.04,12.49,8.03c0,0,4.46,8.92,10.7,6.47,0,0,6.47,10.7,13.38,5.13,0,0,7.58,3.35,9.14-.22,0,0-2.68,5.35,2.45,5.13l11.15-2.9s1.34,4.91,5.35,4.24c0,0,11.82,1.12,14.5,2.23s7.65,6.73,7.65,6.73Z"/>
  </g>
</svg>