<?xml version="1.0" encoding="UTF-8"?>
<svg id="Layer_2" data-name="Layer 2" xmlns="http://www.w3.org/2000/svg" viewBox="0 0 563 450">
  <defs>
    <style>
      .cls-1 {
        fill: none;
        stroke: #201f1f;
        stroke-miterlimit: 10;
      }

      .cls-2 {
        opacity: .4;
      }

      .cls-3 {
        fill: #201f1f;
      }

      .cls-3, .cls-4 {
        stroke-width: 0px;
      }

      .cls-4 {
        fill: #fff;
      }
    </style>
  </defs>
  <path class="cls-1" d="m452.86,179.57s-14.53,2.08-15.13,2.97-14.53,15.72-16.02,17.5-2.08,5.04-2.08,5.04c0,0-21.06,4.75-21.95,6.23s1.78,6.23,1.78,6.23c0,0,.89,4.45-1.19,5.34s-.12,5.72-.12,5.72l-2.34,4.68s9.19,5.18,9.53,6.35-2-9.37-6.44-10.94"/>
  <path class="cls-1" d="m399.33,224.08s6.85,7.52,6.02,15.54-10.2,6.35-11.53,6.69-5.01.67-4.35,4.18-1.34,6.35-2.51,7.86-3.18,4.51,1,9.03,15.71,5.52,18.22,6.85,6.18,1.08,9.8,11.92,6.12,36.99,5.56,38.38"/>
  <path class="cls-1" d="m415.24,313.63c-1.11.28-15.38-2.17-22.62,1.73s-25.03,16.69-25.03,16.69l14.35,21.16"/>
  <path class="cls-1" d="m384.87,342.39c-.01.99-.11,1.99-.31,3.01-1.39,6.99-7.32,19.09-7.31,18.12"/>
  <path class="cls-3" d="m381.77,326.48c.87,5.4,3.5,10.34,3.59,15.92,0,0-1-.01-1-.01.25-5.38-2.08-10.57-2.59-15.9h0Z"/>
  <path class="cls-1" d="m369.41,334.81s-14.34,11.43-16.56,12.54"/>
  <path class="cls-1" d="m452.98,314.25c-1.11.28-13.07,9.46-32.54,16.97s-19.18,12.6-19.18,12.6c0,0,17.51,6.87,27.8,16.33s23.36,23.36,23.92,25.59"/>
  <path class="cls-1" d="m420.26,316.7s-7.89,12.07-9.66,18.35"/>
  <path class="cls-1" d="m408.7,347.34s-25.31,15.08-38.83,18.63-14.01,9.18-14.01,9.18"/>
  <path class="cls-1" d="m359.23,370.57s-2.89-9.76-5.46-19.58-6.58-25.02-6.87-38.26,0-29.08,0-29.08c0,0,14.11-11.23,15.4-12.52s4.17-15.11,6.05-18.57,5.33-9.07,5.33-9.07c0,0-4.28-2.21-7.16.38l-4.71,6.33"/>
  <polygon class="cls-3" points="358.58 237.39 355.39 243.21 357.66 236.98 358.58 237.39 358.58 237.39"/>
  <path class="cls-1" d="m360.64,259.19c-.04-2.6,0-5.22.65-7.2,1.58-4.89,8.35-18.57,9.64-22.74s6.77-13.24,4.75-15.83-5.7-1.53-7.42,1.93-5.24,11.03-5.24,11.03l-4.9,10.82"/>
  <path class="cls-3" d="m359.85,268.4c1.25-2.88.36-6.16.29-9.2,0,0,1-.02,1-.02-.26,3.03.28,6.48-1.29,9.22h0Z"/>
  <path class="cls-3" d="m348.59,236.93c-.47.83-1.65,2.95-2.09,3.76-.24.41-.46.84-.75,1.23.36-.74.71-1.9.99-2.69,0,0,.95-2.72.95-2.72l.91.42h0Z"/>
  <path class="cls-1" d="m359.96,232.97c.29-1.01,4.36-17.82,4.94-20.41s0-10.51-4.03-7.92-10.94,29.22-11.66,30.08c-.23.28-.62,1.05-1.06,2"/>
  <path class="cls-1" d="m353.72,220.65c1.27-5.57,1.82-16.88-2.22-14.15s-3.99,8.97-4.85,13.72-3.5,12.62-3.93,13.19-5.9,8.64-6.19,9.07-1.3-11.51-.72-13.67,1.15-14.83-.29-15.26-4.46,1.58-5.47,10.65-.72,13.1-1.3,15.98-4.89,20.44-5.04,24.61.72,15.83.72,16.55-1.6,34.64-1.4,39.95-1.18,57.88.2,62.02.79,12.6,1.97,17.13,5.12,5.71,9.06,5.91,46.66-4.33,54.34-4.73,51.98-13.59,60.25-20.28"/>
  <polygon class="cls-3" points="303.5 265.32 300.99 262.04 304.2 264.61 303.5 265.32 303.5 265.32"/>
  <path class="cls-1" d="m323.64,398.88c-.59-.2-7.09,2.95-9.45,3.15s-17.52-2.95-19.1-3.94-2.36-13.98-1.58-19.89.59-18.51.79-20.28,9.25-47.06,9.65-48.63,3.35-18.7,3.35-20.67-.79-7.88-.79-7.88c0,0-7.09-13.78-7.48-20.87s1.58-9.45,4.13-7.68c0,0-3.15-7.28-2.36-8.66s5.51-4.92,8.47-1.58c0,0-2.95-9.06-1.18-10.63s6.5-2.76,7.88-1.18c0,0,1.58-4.33,2.56-5.12s7.88.2,8.86,2.17,3.15,12.6-.79,12.8-8.86-6.69-8.86-6.69c0,0,.79,5.12,1.77,7.28s3.54,9.84,3.15,11.22-3.35,3.74-5.51,2.17-5.51-7.09-5.51-7.09c0,0,6.89,11.03,7.68,12.21s-1.58,7.48-2.36,7.68-3.54-1.58-4.53-2.95-7.28-9.65-7.28-9.65c0,0,10.83,12.21,10.24,14.57s-5.32,1.18-6.3.79c-.65-.26-3.07-2.46-5.22-4.56"/>
  <path class="cls-1" d="m368.49,403.73s4.58,14.97,5.15,18.39-.57,23.4-.57,23.4"/>
  <path class="cls-3" d="m413.05,396.01c4,8.35,6.58,17.46,11.54,25.27,2.36,4.03,5.81,7.12,8.9,10.57,3.03,3.55,5.8,7.31,8.11,11.36l-.08.05c-2.83-3.68-5.76-7.27-8.83-10.71-2.27-2.65-4.91-5.01-6.8-7.97-1.86-2.96-3.38-6.12-4.96-9.23-3.21-6.1-6.38-12.76-7.87-19.34h0Z"/>
  <path class="cls-3" d="m432.23,389.46c3.94,3.9,5.75,9.33,7.91,14.3,3.9,8.13,8.89,16.2,11.65,24.66-4.73-7.81-8.18-16.23-11.94-24.52-2.66-4.84-4.91-9.85-7.62-14.43h0Z"/>
  <path class="cls-3" d="m438.63,387c1.99,2.56,3.44,5.41,4.73,8.35,2.55,4.55,6.21,9.18,7.29,14.24-3.05-4.42-5.13-9.33-7.57-14.08-1.64-2.56-3.85-5.61-4.44-8.51h0Z"/>
  <path class="cls-3" d="m442.66,385.28c1.96.74,3.36,2.25,4.5,3.91,1.35,1.48,2.95,2.77,3.93,4.56.68,1.16,1.14,2.47,1.35,3.81,0,0-.09.04-.09.04-1.34-1.9-3-4.64-4.22-6.63-1.4-2.3-3.98-3.36-5.53-5.61,0,0,.06-.08.06-.08h0Z"/>
  <path class="cls-3" d="m396.47,399.92c1.02,2.72,1.99,6.8,2.82,9.62.43,1.6.85,3.22,1.52,4.75.63,1.58,1.78,2.8,2.66,4.25,3.48,5.76,4.26,12.73,7.88,18.39,0,0-.08.07-.08.07-4.67-4.97-5.52-12.22-8.29-18.19-1.66-2.9-3.4-5.81-4.49-9.01-1-3.16-1.86-6.73-2.02-9.87h0Z"/>
  <path class="cls-3" d="m410.78,316c-3.11,3.76-6.47,7.21-9.81,10.74-4.96,6.34-9.24,13.22-12.43,20.62,0,0-.1-.03-.1-.03,1.44-7.26,5.98-13.44,10.74-18.93,3.56-4.42,6.91-9.07,11.54-12.48,0,0,.07.07.07.07h0Z"/>
  <path class="cls-3" d="m398.22,316c-1.52,2.09-3.59,3.58-5.39,5.4-2.54,3.4-3.42,7.58-4.3,11.69,0,0-.1,0-.1,0-.88-4.44,1.31-8.63,4.15-11.89,1.37-2.22,3.29-4.02,5.57-5.27,0,0,.07.07.07.07h0Z"/>
  <path class="cls-1" d="m400.32,235.95s1.86,6.64-.15,9.4"/>
  <path class="cls-3" d="m401.7,216.93c1.65.2,3.17,1.32,3.65,2.94.04.1.1.27.22.31.94.14,1.66-1.02,2.32-1.55,0,0-.15.26-.15.26.21-1.64.65-3.2,1.42-4.68,0,0,.1.02.1.02.11,1.66-.12,3.28-.59,4.86-.04.14-.01.16-.15.26-.88.63-1.93,1.3-3.07,1.12-.21-.07-.36-.28-.45-.44-.48-.66-1.24-1.05-1.81-1.64,0,0-1.53-1.36-1.53-1.36l.03-.09h0Z"/>
  <path class="cls-1" d="m422.01,208.95l-3.26.75s5.02,4.52,6.28,4.77,3.01,1.26,3.01,1.26l-6.03-6.78Z"/>
  <path class="cls-3" d="m422.47,203.44c-.82-1.48-.1-3.22,1.78-3.13,1.42-.01,2.67.83,3.67,1.72,1.95,1.77,3.42,3.91,4.69,6.13l-.09.05c-.74-1.04-1.54-2.03-2.39-2.97-1.57-1.74-3.53-3.72-5.92-3.94-.55-.05-1.04,0-1.31.4-.29.4-.36,1.07-.33,1.69l-.1.03h0Z"/>
  <path class="cls-1" d="m437.73,182.54s1.6,21.64,4.87,32.18,4.02,9.04,7.28,19.83"/>
  <path class="cls-3" d="m443.07,216.68c-.54,5.68.04,11.41,2.8,16.49,1.85,3.3,3.42,6.93,4.27,10.65,1.3,5.6,1.96,11.34,1.57,17.1-.3,3.84-1.3,7.56-2.35,11.25-2.2,7.33-5.12,14.6-9.9,20.67-2.36,2.86-5.61,5.99-9.18,6.7,3.57-1.39,6.32-4.18,8.56-7.18,4.45-6.13,7.27-13.29,9.62-20.46,1.1-3.62,2.22-7.28,2.71-11.03.87-7.53-.48-15.33-3.52-22.22-1.56-3.44-3.7-6.75-4.58-10.51-.97-3.67-.84-7.96,0-11.45h0Z"/>
  <path class="cls-3" d="m447.92,284.26c-.03,3.59-2.41,6.57-4.43,9.31-2.51,3.87-4.79,7.94-8.14,11.18-.87.79-1.64,1.72-2.78,2.15,0,0-.02-.1-.02-.1.45-.29.79-.79,1.15-1.21,2.41-3.1,4.94-6.42,7.48-9.41,1.52-1.74,2.66-3.75,3.64-5.83,1.18-2.09,2.2-3.99,3.1-6.09h0Z"/>
  <path class="cls-3" d="m448.42,294.05c.51,2.32-.03,4.63-.94,6.76-.88,3.76-2.92,8.53-7.66,7.1,0,0,.01-.1.01-.1,3.86-.22,6.22-3.73,7.33-7.09.23-1.17.65-5.95,1.25-6.67h0Z"/>
  <path class="cls-3" d="m451.94,294.57c.45,3,.67,6.12.15,9.16-.08,5.07-1.18,12.32-7.98,10.96,0,0,0-.1,0-.1,5.5-.07,7.31-6.28,7.65-10.88-.03-2.03-.34-4.04-.24-6.09.04-1.02.01-2.05.32-3.08l.1.03h0Z"/>
  <path class="cls-3" d="m445.66,233.8c-.44,7.13-2.13,14.08-4.1,20.91-2.91,11.25-5.34,23.81-13.48,32.6,0,0-.07-.07-.07-.07,5.53-7.7,8.21-16.92,11.3-25.78,3-8.94,3.89-18.72,6.36-27.66h0Z"/>
  <path class="cls-3" d="m446.17,245.6c-.59,8.92-4.08,17.23-6.08,25.86-1.33,5.37-2.86,10.73-4.95,15.87-1.26,3.06-2.64,6.22-4.79,8.77,0,0-.08-.06-.08-.06l.83-1.43c2.59-5.12,4.42-11.56,6.38-17,1.22-3.71,3.05-8.92,3.99-12.65,1.44-6.42,2.91-13.16,4.71-19.35h0Z"/>
  <path class="cls-3" d="m448.68,255.14c.22,5.06-1.03,10.02-2.28,14.88-1.37,6.56-2.28,13.3-5.13,19.44-.75,1.49-1.49,3.16-2.91,4.14,0,0-.06-.08-.06-.08.6-.57.96-1.32,1.32-2.06,1.03-2.26,1.73-4.66,2.45-7.03,1.39-4.79,3-9.57,4.02-14.47.76-4.9,1.45-10.14,2.6-14.82h0Z"/>
  <path class="cls-1" d="m423.81,269.69c1.71-.1,3-.19,3.47-.24,2.01-.25,8.03-13.31,8.79-14.06s1.84,2.11,4.6,1.1"/>
  <polygon class="cls-3" points="408.46 270.45 423.78 269.19 423.84 270.19 408.46 270.45 408.46 270.45"/>
  <path class="cls-3" d="m413.72,280.34c-1.2,2.98-2.87,5.53-4.61,8.18-1.78,2.43-3.55,5.3-6.42,6.53,2.78-1.38,4.37-4.3,6-6.8,1.5-2.56,3.06-5.34,4.05-8.11,0,0,.98.2.98.2h0Z"/>
  <path class="cls-3" d="m416.46,286.31c-1.47,3.45-7.33,13.45-11.01,14.02.76-.07,1.37-.59,1.93-1.07,3.58-3.73,6.23-8.51,8.14-13.27,0,0,.95.32.95.32h0Z"/>
  <path class="cls-1" d="m417.5,292.8c-4.27,5.52-7.78,11.8-11.05,13.56,0,0,7.03-.5,7.78-2.01s-2.01,10.54,6.02,12.35"/>
  <path class="cls-1" d="m316.94,266.77s3.64,5.03,6.9,5.78"/>
  <path class="cls-1" d="m320.08,224.63c-.25-2.76,1.52-6.9,1.52-6.9,0,0-14.31-5.27-16.82-6.03s-11.8-3.77-19.83-3.77h-25.61s7.28-12.55,9.04-15.82,22.59-44.69,22.59-47.45,2.26,1.76,2.76,3.51,16.32,20.08,21.59,23.6,22.09,16.57,22.85,16.57,1-5.52,3.01-5.27,16.32,8.28,18.58,9.29,3.51,1,5.77.25,6.03,1.76,6.03,3.51,2.26,2.76,2.76,4.77-.5,5.27.25,5.77,9.54,2.01,10.04,6.28-7.78,18.58-9.04,20.08-6.78,6.53-6.78,6.53l-2.51.75"/>
  <path class="cls-3" d="m340.93,190.37c7.38,4.1,15.26,7.19,22.58,11.44,2.33,1.43,4.15,4.1,7.05,4.38-1.43.18-2.77-.68-3.99-1.34-1.22-.68-2.18-1.77-3.44-2.37-7.27-3.72-15.66-7.24-22.2-12.11h0Z"/>
  <path class="cls-3" d="m324.11,216.98c1.82-.8,4.14.44,4.77,2.26-1.68-.8-2.98-1.6-4.77-2.26h0Z"/>
  <path class="cls-3" d="m291.22,151.71c-7.64,17.37-15.61,34.64-24.85,51.21,1.05-2.13,2.03-4.29,3.01-6.45,6.84-14.7,14.3-30.46,21.84-44.77h0Z"/>
  <g class="cls-2">
    <path class="cls-4" d="m281.42,168.4c3.16-.69,5.88-.34,8.67.65,2.56.83,4.1,3.18,6.05,4.84,3.94,3.35,7.84,7.04,11.39,10.83,0,0-.48.76-.48.76-3.67-1.1-7.57-2.58-11.14-3.96-2.42-1.02-4.77-2.09-7.3-2.84-4.05-1.57-6.52-5.26-7.67-9.52,0,0,.48-.76.48-.76h0Z"/>
  </g>
</svg>